# xmcd
#
# Track frame offsets:
# 182
# 16950
# 24457
# 37715
# 46667
# 59752
# 69365
# 83330
# 97067
# 105225
# 117925
# 128460
# 143847
# 153520
#
# Disc length: 2209 seconds
#
#
# Revision: 1
# Processed by: cddbd v1.5.1PL0 Copyright (c) Steve Scherf et al.
# Submitted via: FreeRIP 2.90 
#
DISCID=a1089f0e
DTITLE=Fesaci - 1995 Ostrov Fesaku
DYEAR=1995
DGENRE=Country
TTITLE0=Tak jako driv
TTITLE1=Lina zena
TTITLE2=Jaro
TTITLE3=Matterhorn
TTITLE4=Cim jezdi laska
TTITLE5=Fryda
TTITLE6=Slida
TTITLE7=Pojedou
TTITLE8=Tanecek
TTITLE9=Kousek lasky
TTITLE10=Darek vanocni
TTITLE11=Povoden
TTITLE12=Ja tajne cvicim
TTITLE13=Ostrov Fesaku
EXTD=Panton
EXTT0=
EXTT1=
EXTT2=
EXTT3=
EXTT4=
EXTT5=
EXTT6=
EXTT7=
EXTT8=
EXTT9=
EXTT10=
EXTT11=
EXTT12=
EXTT13=
PLAYORDER=
